<?xml version="1.0" encoding="utf-8"?>
<!-- Smoke Detector icon by Arthur Shlain from Usefulicons.com -->
<svg xmlns="http://www.w3.org/2000/svg" xmlns:xlink="http://www.w3.org/1999/xlink" xml:space="preserve" version="1.1" x="0px" y="0px" viewBox="0 0 100 100" width="400px" height="400px"><path d="M5,30L18.198,30L23.198,45L76.802,45L81.802,30L95,30L95,5L5,5L5,30ZM25.969,37.5L23.469,30L32.883,30L34.133,37.5L25.969,37.5ZM47.5,37.5L39.201,37.5L37.951,30L42.938,30C43.693,32.125,45.376,33.808,47.501,34.563L47.501,37.5ZM50,30C48.622,30,47.5,28.878,47.5,27.5S48.622,25,50,25S52.5,26.122,52.5,27.5S51.378,30,50,30ZM60.799,37.5L52.5,37.5L52.5,34.562C54.625,33.807,56.308,32.124,57.062,29.999L62.049,29.999L60.799,37.5ZM74.031,37.5L65.867,37.5L67.117,30L76.531,30L74.031,37.5ZM12.5,12.5L87.5,12.5L87.5,22.5L55.574,22.5C54.2,20.97,52.214,20,50,20S45.8,20.97,44.426,22.5L12.5,22.5L12.5,12.5Z" stroke="none"></path><path d="M48.879,81.25C48.879,83.89,49.905,86.37,51.768,88.232L55.303,84.696C54.385,83.778,53.879,82.554,53.879,81.25S54.385,78.722,55.304,77.803C63.052,70.054,63.052,57.446,55.304,49.697L51.768,53.232C57.567,59.032,57.567,68.468,51.768,74.268C49.905,76.13,48.879,78.61,48.879,81.25Z" stroke="none"></path><path d="M44.696,95.303L48.232,91.768C42.433,85.968,42.433,76.532,48.232,70.732C50.095,68.869,51.121,66.39,51.121,63.75S50.095,58.63,48.232,56.768L44.697,60.304C45.615,61.222,46.121,62.446,46.121,63.75S45.615,66.278,44.696,67.197C36.948,74.946,36.948,87.554,44.696,95.303Z" stroke="none"></path></svg>