<svg xmlns="http://www.w3.org/2000/svg" viewBox="0 0 512 512">
  <!-- Professional Blue Background -->
  <rect width="512" height="512" rx="100" fill="#0d6efd"/>
  
  <!-- Sleek White Smoke Detector Symbol -->
  <g fill="white">
    <!-- Main Body -->
    <path d="M256 80c-97.2 0-176 78.8-176 176s78.8 176 176 176 176-78.8 176-176-78.8-176-176-176zm0 320c-79.4 0-144-64.6-144-144s64.6-144 144-144 144 64.6 144 144-64.6 144-144 144z"/>
    <!-- Internal Vents -->
    <rect x="160" y="240" width="192" height="12" rx="6"/>
    <rect x="160" y="270" width="192" height="12" rx="6"/>
    <rect x="160" y="210" width="192" height="12" rx="6"/>
    <!-- Status LED -->
    <circle cx="256" cy="160" r="14"/>
  </g>
</svg>